<mxfile host="app.diagrams.net" agent="Mozilla/5.0 (Windows NT 10.0; Win64; x64) AppleWebKit/537.36 (KHTML, like Gecko) Chrome/133.0.0.0 Safari/537.36 Edg/133.0.0.0" version="26.0.14">
  <diagram name="Page-1" id="m8JnofFs74yqRrOUdXPR">
    <mxGraphModel dx="1426" dy="789" grid="1" gridSize="10" guides="1" tooltips="1" connect="1" arrows="1" fold="1" page="1" pageScale="1" pageWidth="850" pageHeight="1100" math="0" shadow="0">
      <root>
        <mxCell id="0" />
        <mxCell id="1" parent="0" />
        <mxCell id="64JwXOLs04ylSAh60opL-1" value="" style="whiteSpace=wrap;html=1;aspect=fixed;" vertex="1" parent="1">
          <mxGeometry x="80" y="40" width="160" height="160" as="geometry" />
        </mxCell>
        <mxCell id="64JwXOLs04ylSAh60opL-2" value="Declarations" style="text;html=1;align=center;verticalAlign=middle;whiteSpace=wrap;rounded=0;" vertex="1" parent="1">
          <mxGeometry x="90" y="50" width="140" height="30" as="geometry" />
        </mxCell>
        <mxCell id="64JwXOLs04ylSAh60opL-3" value="&lt;div&gt;num baseFee = 5&lt;/div&gt;&lt;div&gt;&amp;nbsp; num taxRate = 0.14&lt;/div&gt;&lt;div&gt;&amp;nbsp; string customerName&lt;/div&gt;&lt;div&gt;&amp;nbsp; num phoneNumber&lt;/div&gt;&lt;div&gt;&amp;nbsp; num textMessages&lt;/div&gt;&lt;div&gt;&amp;nbsp; num extraCharge&lt;/div&gt;" style="text;html=1;align=center;verticalAlign=middle;whiteSpace=wrap;rounded=0;" vertex="1" parent="1">
          <mxGeometry x="40" y="80" width="240" height="130" as="geometry" />
        </mxCell>
        <mxCell id="64JwXOLs04ylSAh60opL-5" value="START" style="ellipse;whiteSpace=wrap;html=1;" vertex="1" parent="1">
          <mxGeometry x="420" y="25" width="120" height="80" as="geometry" />
        </mxCell>
        <mxCell id="64JwXOLs04ylSAh60opL-6" value="END" style="ellipse;whiteSpace=wrap;html=1;" vertex="1" parent="1">
          <mxGeometry x="400" y="810" width="120" height="80" as="geometry" />
        </mxCell>
        <mxCell id="64JwXOLs04ylSAh60opL-8" value="output(&quot;Enter customer&#39;s name,&lt;div&gt;or enter ZZZ to proceed to processing&quot;)&lt;/div&gt;" style="shape=parallelogram;perimeter=parallelogramPerimeter;whiteSpace=wrap;html=1;fixedSize=1;" vertex="1" parent="1">
          <mxGeometry x="350" y="140" width="260" height="50" as="geometry" />
        </mxCell>
        <mxCell id="64JwXOLs04ylSAh60opL-9" value="customerName&lt;div&gt;&amp;nbsp;= &quot;ZZZ&quot;&lt;/div&gt;" style="rhombus;whiteSpace=wrap;html=1;" vertex="1" parent="1">
          <mxGeometry x="390" y="510" width="130" height="100" as="geometry" />
        </mxCell>
        <mxCell id="64JwXOLs04ylSAh60opL-14" value="calculateBill()" style="shape=process;whiteSpace=wrap;html=1;backgroundOutline=1;" vertex="1" parent="1">
          <mxGeometry x="580" y="620" width="120" height="60" as="geometry" />
        </mxCell>
        <mxCell id="64JwXOLs04ylSAh60opL-15" value="displayResults()" style="shape=process;whiteSpace=wrap;html=1;backgroundOutline=1;" vertex="1" parent="1">
          <mxGeometry x="580" y="740" width="120" height="60" as="geometry" />
        </mxCell>
        <mxCell id="64JwXOLs04ylSAh60opL-16" value="" style="endArrow=none;html=1;rounded=0;entryX=1;entryY=0.5;entryDx=0;entryDy=0;" edge="1" parent="1" source="64JwXOLs04ylSAh60opL-10" target="64JwXOLs04ylSAh60opL-9">
          <mxGeometry width="50" height="50" relative="1" as="geometry">
            <mxPoint x="640" y="560" as="sourcePoint" />
            <mxPoint x="450" y="380" as="targetPoint" />
          </mxGeometry>
        </mxCell>
        <mxCell id="64JwXOLs04ylSAh60opL-17" value="" style="endArrow=classic;html=1;rounded=0;entryX=0.5;entryY=0;entryDx=0;entryDy=0;" edge="1" parent="1" target="64JwXOLs04ylSAh60opL-14">
          <mxGeometry width="50" height="50" relative="1" as="geometry">
            <mxPoint x="640" y="560" as="sourcePoint" />
            <mxPoint x="450" y="380" as="targetPoint" />
          </mxGeometry>
        </mxCell>
        <mxCell id="64JwXOLs04ylSAh60opL-18" value="" style="endArrow=classic;html=1;rounded=0;entryX=0.5;entryY=0;entryDx=0;entryDy=0;exitX=0.5;exitY=1;exitDx=0;exitDy=0;" edge="1" parent="1" source="64JwXOLs04ylSAh60opL-14" target="64JwXOLs04ylSAh60opL-15">
          <mxGeometry width="50" height="50" relative="1" as="geometry">
            <mxPoint x="400" y="430" as="sourcePoint" />
            <mxPoint x="450" y="380" as="targetPoint" />
          </mxGeometry>
        </mxCell>
        <mxCell id="64JwXOLs04ylSAh60opL-21" value="" style="endArrow=classic;html=1;rounded=0;entryX=1.025;entryY=0.625;entryDx=0;entryDy=0;entryPerimeter=0;" edge="1" parent="1" target="64JwXOLs04ylSAh60opL-6">
          <mxGeometry width="50" height="50" relative="1" as="geometry">
            <mxPoint x="640" y="860" as="sourcePoint" />
            <mxPoint x="450" y="380" as="targetPoint" />
          </mxGeometry>
        </mxCell>
        <mxCell id="64JwXOLs04ylSAh60opL-22" value="input customerName" style="shape=parallelogram;perimeter=parallelogramPerimeter;whiteSpace=wrap;html=1;fixedSize=1;" vertex="1" parent="1">
          <mxGeometry x="400" y="220" width="160" height="60" as="geometry" />
        </mxCell>
        <mxCell id="64JwXOLs04ylSAh60opL-26" value="input phoneNumber" style="shape=parallelogram;perimeter=parallelogramPerimeter;whiteSpace=wrap;html=1;fixedSize=1;" vertex="1" parent="1">
          <mxGeometry x="390" y="320" width="150" height="60" as="geometry" />
        </mxCell>
        <mxCell id="64JwXOLs04ylSAh60opL-27" value="input textMessages" style="shape=parallelogram;perimeter=parallelogramPerimeter;whiteSpace=wrap;html=1;fixedSize=1;" vertex="1" parent="1">
          <mxGeometry x="380" y="420" width="150" height="50" as="geometry" />
        </mxCell>
        <mxCell id="64JwXOLs04ylSAh60opL-30" value="" style="endArrow=none;html=1;rounded=0;entryX=0.5;entryY=1;entryDx=0;entryDy=0;" edge="1" parent="1" target="64JwXOLs04ylSAh60opL-15">
          <mxGeometry width="50" height="50" relative="1" as="geometry">
            <mxPoint x="640" y="860" as="sourcePoint" />
            <mxPoint x="450" y="570" as="targetPoint" />
          </mxGeometry>
        </mxCell>
        <mxCell id="64JwXOLs04ylSAh60opL-31" value="" style="endArrow=none;html=1;rounded=0;entryX=1;entryY=0.5;entryDx=0;entryDy=0;" edge="1" parent="1" target="64JwXOLs04ylSAh60opL-10">
          <mxGeometry width="50" height="50" relative="1" as="geometry">
            <mxPoint x="640" y="560" as="sourcePoint" />
            <mxPoint x="520" y="560" as="targetPoint" />
          </mxGeometry>
        </mxCell>
        <mxCell id="64JwXOLs04ylSAh60opL-10" value="YES" style="text;html=1;align=center;verticalAlign=middle;whiteSpace=wrap;rounded=0;" vertex="1" parent="1">
          <mxGeometry x="540" y="545" width="60" height="30" as="geometry" />
        </mxCell>
        <mxCell id="64JwXOLs04ylSAh60opL-32" value="" style="endArrow=classic;html=1;rounded=0;exitX=0.5;exitY=1;exitDx=0;exitDy=0;entryX=0.5;entryY=0;entryDx=0;entryDy=0;" edge="1" parent="1" source="64JwXOLs04ylSAh60opL-5" target="64JwXOLs04ylSAh60opL-8">
          <mxGeometry width="50" height="50" relative="1" as="geometry">
            <mxPoint x="400" y="420" as="sourcePoint" />
            <mxPoint x="450" y="370" as="targetPoint" />
          </mxGeometry>
        </mxCell>
        <mxCell id="64JwXOLs04ylSAh60opL-33" value="" style="endArrow=classic;html=1;rounded=0;exitX=0.5;exitY=1;exitDx=0;exitDy=0;entryX=0.5;entryY=0;entryDx=0;entryDy=0;" edge="1" parent="1" source="64JwXOLs04ylSAh60opL-8" target="64JwXOLs04ylSAh60opL-22">
          <mxGeometry width="50" height="50" relative="1" as="geometry">
            <mxPoint x="400" y="420" as="sourcePoint" />
            <mxPoint x="450" y="370" as="targetPoint" />
          </mxGeometry>
        </mxCell>
        <mxCell id="64JwXOLs04ylSAh60opL-34" value="" style="endArrow=classic;html=1;rounded=0;exitX=0.444;exitY=1.017;exitDx=0;exitDy=0;exitPerimeter=0;entryX=0.5;entryY=0;entryDx=0;entryDy=0;" edge="1" parent="1" source="64JwXOLs04ylSAh60opL-22" target="64JwXOLs04ylSAh60opL-26">
          <mxGeometry width="50" height="50" relative="1" as="geometry">
            <mxPoint x="400" y="420" as="sourcePoint" />
            <mxPoint x="450" y="370" as="targetPoint" />
          </mxGeometry>
        </mxCell>
        <mxCell id="64JwXOLs04ylSAh60opL-35" value="" style="endArrow=classic;html=1;rounded=0;entryX=0.5;entryY=0;entryDx=0;entryDy=0;exitX=0.44;exitY=1;exitDx=0;exitDy=0;exitPerimeter=0;" edge="1" parent="1" source="64JwXOLs04ylSAh60opL-26" target="64JwXOLs04ylSAh60opL-27">
          <mxGeometry width="50" height="50" relative="1" as="geometry">
            <mxPoint x="400" y="420" as="sourcePoint" />
            <mxPoint x="450" y="370" as="targetPoint" />
          </mxGeometry>
        </mxCell>
        <mxCell id="64JwXOLs04ylSAh60opL-36" value="" style="endArrow=classic;html=1;rounded=0;entryX=0.5;entryY=0;entryDx=0;entryDy=0;exitX=0.5;exitY=1;exitDx=0;exitDy=0;" edge="1" parent="1" source="64JwXOLs04ylSAh60opL-27" target="64JwXOLs04ylSAh60opL-9">
          <mxGeometry width="50" height="50" relative="1" as="geometry">
            <mxPoint x="400" y="420" as="sourcePoint" />
            <mxPoint x="450" y="370" as="targetPoint" />
          </mxGeometry>
        </mxCell>
        <mxCell id="64JwXOLs04ylSAh60opL-38" value="" style="endArrow=none;html=1;rounded=0;entryX=0;entryY=0.5;entryDx=0;entryDy=0;" edge="1" parent="1" source="64JwXOLs04ylSAh60opL-11" target="64JwXOLs04ylSAh60opL-9">
          <mxGeometry width="50" height="50" relative="1" as="geometry">
            <mxPoint x="300" y="560" as="sourcePoint" />
            <mxPoint x="450" y="370" as="targetPoint" />
          </mxGeometry>
        </mxCell>
        <mxCell id="64JwXOLs04ylSAh60opL-39" value="" style="endArrow=none;html=1;rounded=0;" edge="1" parent="1">
          <mxGeometry width="50" height="50" relative="1" as="geometry">
            <mxPoint x="300" y="160" as="sourcePoint" />
            <mxPoint x="300" y="560" as="targetPoint" />
          </mxGeometry>
        </mxCell>
        <mxCell id="64JwXOLs04ylSAh60opL-40" value="" style="endArrow=classic;html=1;rounded=0;" edge="1" parent="1">
          <mxGeometry width="50" height="50" relative="1" as="geometry">
            <mxPoint x="300" y="160" as="sourcePoint" />
            <mxPoint x="340" y="160" as="targetPoint" />
          </mxGeometry>
        </mxCell>
        <mxCell id="64JwXOLs04ylSAh60opL-41" value="" style="endArrow=none;html=1;rounded=0;entryX=0;entryY=0.5;entryDx=0;entryDy=0;" edge="1" parent="1" target="64JwXOLs04ylSAh60opL-11">
          <mxGeometry width="50" height="50" relative="1" as="geometry">
            <mxPoint x="300" y="560" as="sourcePoint" />
            <mxPoint x="390" y="560" as="targetPoint" />
          </mxGeometry>
        </mxCell>
        <mxCell id="64JwXOLs04ylSAh60opL-11" value="NO" style="text;html=1;align=center;verticalAlign=middle;whiteSpace=wrap;rounded=0;" vertex="1" parent="1">
          <mxGeometry x="320" y="545" width="60" height="30" as="geometry" />
        </mxCell>
        <mxCell id="64JwXOLs04ylSAh60opL-42" value="calculateBill()" style="ellipse;whiteSpace=wrap;html=1;" vertex="1" parent="1">
          <mxGeometry x="345" y="1120" width="195" height="60" as="geometry" />
        </mxCell>
        <mxCell id="w9lz8ek8Bl2cyJ5kpBqj-1" value="textMessages &amp;gt; 100" style="rhombus;whiteSpace=wrap;html=1;" vertex="1" parent="1">
          <mxGeometry x="357.5" y="1220" width="170" height="120" as="geometry" />
        </mxCell>
        <mxCell id="VFfsOTZ8tGUyLCSrHVtE-1" value="NO" style="text;html=1;align=center;verticalAlign=middle;whiteSpace=wrap;rounded=0;" vertex="1" parent="1">
          <mxGeometry x="280" y="1230" width="60" height="30" as="geometry" />
        </mxCell>
        <mxCell id="mWfhgtWapaySKCUksq5b-1" value="textMessages &amp;lt; 300" style="rhombus;whiteSpace=wrap;html=1;" vertex="1" parent="1">
          <mxGeometry x="560" y="1350" width="150" height="120" as="geometry" />
        </mxCell>
        <mxCell id="1GPUfE_0pncDpd8pyEYp-1" value="extraCharge = (textMessages - 100) * 0.03" style="rounded=0;whiteSpace=wrap;html=1;" vertex="1" parent="1">
          <mxGeometry x="322.5" y="1490" width="237.5" height="70" as="geometry" />
        </mxCell>
        <mxCell id="oKTtClsYX8X-2EPZthCU-1" value="extraCharge = (200 * 0.03) + ((textMessages - 300) * 0.02)" style="rounded=0;whiteSpace=wrap;html=1;" vertex="1" parent="1">
          <mxGeometry x="720" y="1490" width="330" height="70" as="geometry" />
        </mxCell>
        <mxCell id="oKTtClsYX8X-2EPZthCU-4" value="beforeTax = baseFee + extraCharge" style="rounded=0;whiteSpace=wrap;html=1;" vertex="1" parent="1">
          <mxGeometry x="535" y="1690" width="230" height="60" as="geometry" />
        </mxCell>
        <mxCell id="oKTtClsYX8X-2EPZthCU-5" value="taxAmount = beforeTax * taxRate" style="rounded=0;whiteSpace=wrap;html=1;" vertex="1" parent="1">
          <mxGeometry x="535" y="1780" width="220" height="60" as="geometry" />
        </mxCell>
        <mxCell id="oKTtClsYX8X-2EPZthCU-6" value="billTotal = beforeTax + taxAmount" style="rounded=0;whiteSpace=wrap;html=1;" vertex="1" parent="1">
          <mxGeometry x="540" y="1880" width="210" height="60" as="geometry" />
        </mxCell>
        <mxCell id="oKTtClsYX8X-2EPZthCU-7" value="" style="endArrow=classic;html=1;rounded=0;exitX=0.5;exitY=1;exitDx=0;exitDy=0;entryX=0.5;entryY=0;entryDx=0;entryDy=0;" edge="1" parent="1" source="64JwXOLs04ylSAh60opL-42" target="w9lz8ek8Bl2cyJ5kpBqj-1">
          <mxGeometry width="50" height="50" relative="1" as="geometry">
            <mxPoint x="400" y="1390" as="sourcePoint" />
            <mxPoint x="450" y="1340" as="targetPoint" />
          </mxGeometry>
        </mxCell>
        <mxCell id="oKTtClsYX8X-2EPZthCU-8" value="" style="endArrow=classic;html=1;rounded=0;entryX=0.5;entryY=0;entryDx=0;entryDy=0;" edge="1" parent="1" target="mWfhgtWapaySKCUksq5b-1">
          <mxGeometry width="50" height="50" relative="1" as="geometry">
            <mxPoint x="635" y="1280" as="sourcePoint" />
            <mxPoint x="450" y="1340" as="targetPoint" />
          </mxGeometry>
        </mxCell>
        <mxCell id="oKTtClsYX8X-2EPZthCU-9" value="" style="endArrow=none;html=1;rounded=0;exitX=1;exitY=0.5;exitDx=0;exitDy=0;" edge="1" parent="1" source="VFfsOTZ8tGUyLCSrHVtE-2">
          <mxGeometry width="50" height="50" relative="1" as="geometry">
            <mxPoint x="400" y="1390" as="sourcePoint" />
            <mxPoint x="640" y="1280" as="targetPoint" />
          </mxGeometry>
        </mxCell>
        <mxCell id="oKTtClsYX8X-2EPZthCU-10" value="" style="endArrow=none;html=1;rounded=0;exitX=1;exitY=0.5;exitDx=0;exitDy=0;" edge="1" parent="1" source="w9lz8ek8Bl2cyJ5kpBqj-1" target="VFfsOTZ8tGUyLCSrHVtE-2">
          <mxGeometry width="50" height="50" relative="1" as="geometry">
            <mxPoint x="528" y="1280" as="sourcePoint" />
            <mxPoint x="640" y="1280" as="targetPoint" />
          </mxGeometry>
        </mxCell>
        <mxCell id="VFfsOTZ8tGUyLCSrHVtE-2" value="YES" style="text;html=1;align=center;verticalAlign=middle;whiteSpace=wrap;rounded=0;" vertex="1" parent="1">
          <mxGeometry x="540" y="1265" width="60" height="30" as="geometry" />
        </mxCell>
        <mxCell id="oKTtClsYX8X-2EPZthCU-11" value="" style="endArrow=classic;html=1;rounded=0;entryX=0.358;entryY=-0.029;entryDx=0;entryDy=0;entryPerimeter=0;" edge="1" parent="1" target="oKTtClsYX8X-2EPZthCU-1">
          <mxGeometry width="50" height="50" relative="1" as="geometry">
            <mxPoint x="838" y="1410" as="sourcePoint" />
            <mxPoint x="450" y="1340" as="targetPoint" />
          </mxGeometry>
        </mxCell>
        <mxCell id="oKTtClsYX8X-2EPZthCU-12" value="" style="endArrow=none;html=1;rounded=0;entryX=1;entryY=0.5;entryDx=0;entryDy=0;" edge="1" parent="1" source="hSld4m0hcNtJHu0d4xSL-2" target="mWfhgtWapaySKCUksq5b-1">
          <mxGeometry width="50" height="50" relative="1" as="geometry">
            <mxPoint x="840" y="1410" as="sourcePoint" />
            <mxPoint x="450" y="1340" as="targetPoint" />
          </mxGeometry>
        </mxCell>
        <mxCell id="oKTtClsYX8X-2EPZthCU-13" value="" style="endArrow=none;html=1;rounded=0;entryX=1;entryY=0.5;entryDx=0;entryDy=0;" edge="1" parent="1" target="hSld4m0hcNtJHu0d4xSL-2">
          <mxGeometry width="50" height="50" relative="1" as="geometry">
            <mxPoint x="840" y="1410" as="sourcePoint" />
            <mxPoint x="710" y="1410" as="targetPoint" />
          </mxGeometry>
        </mxCell>
        <mxCell id="hSld4m0hcNtJHu0d4xSL-2" value="YES" style="text;html=1;align=center;verticalAlign=middle;whiteSpace=wrap;rounded=0;" vertex="1" parent="1">
          <mxGeometry x="720" y="1395" width="60" height="30" as="geometry" />
        </mxCell>
        <mxCell id="oKTtClsYX8X-2EPZthCU-14" value="" style="endArrow=classic;html=1;rounded=0;entryX=0.5;entryY=0;entryDx=0;entryDy=0;" edge="1" parent="1" target="1GPUfE_0pncDpd8pyEYp-1">
          <mxGeometry width="50" height="50" relative="1" as="geometry">
            <mxPoint x="441" y="1410" as="sourcePoint" />
            <mxPoint x="450" y="1340" as="targetPoint" />
          </mxGeometry>
        </mxCell>
        <mxCell id="oKTtClsYX8X-2EPZthCU-15" value="" style="endArrow=none;html=1;rounded=0;entryX=0;entryY=0.5;entryDx=0;entryDy=0;" edge="1" parent="1" source="hSld4m0hcNtJHu0d4xSL-1" target="mWfhgtWapaySKCUksq5b-1">
          <mxGeometry width="50" height="50" relative="1" as="geometry">
            <mxPoint x="440" y="1410" as="sourcePoint" />
            <mxPoint x="450" y="1340" as="targetPoint" />
          </mxGeometry>
        </mxCell>
        <mxCell id="oKTtClsYX8X-2EPZthCU-16" value="" style="endArrow=none;html=1;rounded=0;entryX=0;entryY=0.5;entryDx=0;entryDy=0;" edge="1" parent="1" target="hSld4m0hcNtJHu0d4xSL-1">
          <mxGeometry width="50" height="50" relative="1" as="geometry">
            <mxPoint x="440" y="1410" as="sourcePoint" />
            <mxPoint x="560" y="1410" as="targetPoint" />
          </mxGeometry>
        </mxCell>
        <mxCell id="hSld4m0hcNtJHu0d4xSL-1" value="NO" style="text;html=1;align=center;verticalAlign=middle;whiteSpace=wrap;rounded=0;" vertex="1" parent="1">
          <mxGeometry x="475" y="1395" width="60" height="30" as="geometry" />
        </mxCell>
        <mxCell id="oKTtClsYX8X-2EPZthCU-19" value="" style="endArrow=none;html=1;rounded=0;entryX=0.5;entryY=1;entryDx=0;entryDy=0;" edge="1" parent="1" target="1GPUfE_0pncDpd8pyEYp-1">
          <mxGeometry width="50" height="50" relative="1" as="geometry">
            <mxPoint x="441" y="1640" as="sourcePoint" />
            <mxPoint x="450" y="1540" as="targetPoint" />
          </mxGeometry>
        </mxCell>
        <mxCell id="oKTtClsYX8X-2EPZthCU-20" value="" style="endArrow=none;html=1;rounded=0;" edge="1" parent="1">
          <mxGeometry width="50" height="50" relative="1" as="geometry">
            <mxPoint x="871" y="1640" as="sourcePoint" />
            <mxPoint x="871" y="1560" as="targetPoint" />
          </mxGeometry>
        </mxCell>
        <mxCell id="oKTtClsYX8X-2EPZthCU-21" value="" style="endArrow=none;html=1;rounded=0;" edge="1" parent="1">
          <mxGeometry width="50" height="50" relative="1" as="geometry">
            <mxPoint x="440" y="1640" as="sourcePoint" />
            <mxPoint x="870" y="1640" as="targetPoint" />
          </mxGeometry>
        </mxCell>
        <mxCell id="oKTtClsYX8X-2EPZthCU-22" value="" style="endArrow=classic;html=1;rounded=0;entryX=0.5;entryY=0;entryDx=0;entryDy=0;" edge="1" parent="1" target="oKTtClsYX8X-2EPZthCU-4">
          <mxGeometry width="50" height="50" relative="1" as="geometry">
            <mxPoint x="650" y="1640" as="sourcePoint" />
            <mxPoint x="450" y="1540" as="targetPoint" />
          </mxGeometry>
        </mxCell>
        <mxCell id="oKTtClsYX8X-2EPZthCU-23" value="" style="endArrow=classic;html=1;rounded=0;entryX=0.5;entryY=0;entryDx=0;entryDy=0;exitX=0.474;exitY=1.017;exitDx=0;exitDy=0;exitPerimeter=0;" edge="1" parent="1" source="oKTtClsYX8X-2EPZthCU-4" target="oKTtClsYX8X-2EPZthCU-5">
          <mxGeometry width="50" height="50" relative="1" as="geometry">
            <mxPoint x="400" y="1690" as="sourcePoint" />
            <mxPoint x="450" y="1640" as="targetPoint" />
          </mxGeometry>
        </mxCell>
        <mxCell id="oKTtClsYX8X-2EPZthCU-24" value="" style="endArrow=classic;html=1;rounded=0;exitX=0.5;exitY=1;exitDx=0;exitDy=0;" edge="1" parent="1" source="oKTtClsYX8X-2EPZthCU-5" target="oKTtClsYX8X-2EPZthCU-6">
          <mxGeometry width="50" height="50" relative="1" as="geometry">
            <mxPoint x="400" y="1690" as="sourcePoint" />
            <mxPoint x="450" y="1640" as="targetPoint" />
          </mxGeometry>
        </mxCell>
        <mxCell id="oKTtClsYX8X-2EPZthCU-25" value="" style="endArrow=none;html=1;rounded=0;entryX=0;entryY=0.5;entryDx=0;entryDy=0;" edge="1" parent="1" target="w9lz8ek8Bl2cyJ5kpBqj-1">
          <mxGeometry width="50" height="50" relative="1" as="geometry">
            <mxPoint x="240" y="1280" as="sourcePoint" />
            <mxPoint x="450" y="1440" as="targetPoint" />
          </mxGeometry>
        </mxCell>
        <mxCell id="oKTtClsYX8X-2EPZthCU-27" value="" style="endArrow=classic;html=1;rounded=0;" edge="1" parent="1">
          <mxGeometry width="50" height="50" relative="1" as="geometry">
            <mxPoint x="240" y="1660" as="sourcePoint" />
            <mxPoint x="650" y="1660" as="targetPoint" />
          </mxGeometry>
        </mxCell>
        <mxCell id="oKTtClsYX8X-2EPZthCU-28" value="" style="endArrow=none;html=1;rounded=0;" edge="1" parent="1">
          <mxGeometry width="50" height="50" relative="1" as="geometry">
            <mxPoint x="240" y="1660" as="sourcePoint" />
            <mxPoint x="240" y="1280" as="targetPoint" />
          </mxGeometry>
        </mxCell>
        <mxCell id="oKTtClsYX8X-2EPZthCU-29" value="EOF&amp;nbsp;" style="ellipse;whiteSpace=wrap;html=1;" vertex="1" parent="1">
          <mxGeometry x="585" y="1980" width="120" height="80" as="geometry" />
        </mxCell>
        <mxCell id="oKTtClsYX8X-2EPZthCU-30" value="" style="endArrow=classic;html=1;rounded=0;entryX=0.5;entryY=0;entryDx=0;entryDy=0;exitX=0.5;exitY=1;exitDx=0;exitDy=0;" edge="1" parent="1" source="oKTtClsYX8X-2EPZthCU-6" target="oKTtClsYX8X-2EPZthCU-29">
          <mxGeometry width="50" height="50" relative="1" as="geometry">
            <mxPoint x="400" y="2090" as="sourcePoint" />
            <mxPoint x="450" y="2040" as="targetPoint" />
          </mxGeometry>
        </mxCell>
        <mxCell id="oKTtClsYX8X-2EPZthCU-31" value="displayResults()" style="ellipse;whiteSpace=wrap;html=1;" vertex="1" parent="1">
          <mxGeometry x="130" y="2090" width="190" height="80" as="geometry" />
        </mxCell>
        <mxCell id="oKTtClsYX8X-2EPZthCU-32" value="output(&quot;Customer Name: &quot;, + customerName)" style="shape=parallelogram;perimeter=parallelogramPerimeter;whiteSpace=wrap;html=1;fixedSize=1;" vertex="1" parent="1">
          <mxGeometry x="90" y="2220" width="295" height="60" as="geometry" />
        </mxCell>
        <mxCell id="oKTtClsYX8X-2EPZthCU-33" value="&amp;nbsp;output(&quot;Phone Number: &quot;, + phoneNumber)" style="shape=parallelogram;perimeter=parallelogramPerimeter;whiteSpace=wrap;html=1;fixedSize=1;" vertex="1" parent="1">
          <mxGeometry x="90" y="2330" width="290" height="60" as="geometry" />
        </mxCell>
        <mxCell id="oKTtClsYX8X-2EPZthCU-34" value="output(&quot;Text Messages Sent: &quot;, + textMessages)" style="shape=parallelogram;perimeter=parallelogramPerimeter;whiteSpace=wrap;html=1;fixedSize=1;" vertex="1" parent="1">
          <mxGeometry x="80" y="2440" width="290" height="60" as="geometry" />
        </mxCell>
        <mxCell id="oKTtClsYX8X-2EPZthCU-35" value="output(&quot;Total Bill: &quot;, + billTotal)" style="shape=parallelogram;perimeter=parallelogramPerimeter;whiteSpace=wrap;html=1;fixedSize=1;" vertex="1" parent="1">
          <mxGeometry x="105" y="2540" width="210" height="60" as="geometry" />
        </mxCell>
        <mxCell id="oKTtClsYX8X-2EPZthCU-36" value="EOF" style="ellipse;whiteSpace=wrap;html=1;" vertex="1" parent="1">
          <mxGeometry x="140" y="2630" width="120" height="80" as="geometry" />
        </mxCell>
        <mxCell id="oKTtClsYX8X-2EPZthCU-37" value="" style="endArrow=classic;html=1;rounded=0;entryX=0.451;entryY=0.017;entryDx=0;entryDy=0;entryPerimeter=0;exitX=0.5;exitY=1;exitDx=0;exitDy=0;" edge="1" parent="1" source="oKTtClsYX8X-2EPZthCU-31" target="oKTtClsYX8X-2EPZthCU-32">
          <mxGeometry width="50" height="50" relative="1" as="geometry">
            <mxPoint x="400" y="2390" as="sourcePoint" />
            <mxPoint x="450" y="2340" as="targetPoint" />
          </mxGeometry>
        </mxCell>
        <mxCell id="oKTtClsYX8X-2EPZthCU-38" value="" style="endArrow=classic;html=1;rounded=0;exitX=0.461;exitY=1.05;exitDx=0;exitDy=0;exitPerimeter=0;entryX=0.469;entryY=-0.017;entryDx=0;entryDy=0;entryPerimeter=0;" edge="1" parent="1" source="oKTtClsYX8X-2EPZthCU-32" target="oKTtClsYX8X-2EPZthCU-33">
          <mxGeometry width="50" height="50" relative="1" as="geometry">
            <mxPoint x="400" y="2390" as="sourcePoint" />
            <mxPoint x="450" y="2340" as="targetPoint" />
          </mxGeometry>
        </mxCell>
        <mxCell id="oKTtClsYX8X-2EPZthCU-39" value="" style="endArrow=classic;html=1;rounded=0;exitX=0.459;exitY=1.033;exitDx=0;exitDy=0;exitPerimeter=0;entryX=0.5;entryY=0;entryDx=0;entryDy=0;" edge="1" parent="1" source="oKTtClsYX8X-2EPZthCU-33" target="oKTtClsYX8X-2EPZthCU-34">
          <mxGeometry width="50" height="50" relative="1" as="geometry">
            <mxPoint x="400" y="2390" as="sourcePoint" />
            <mxPoint x="450" y="2340" as="targetPoint" />
          </mxGeometry>
        </mxCell>
        <mxCell id="oKTtClsYX8X-2EPZthCU-40" value="" style="endArrow=classic;html=1;rounded=0;entryX=0.5;entryY=0;entryDx=0;entryDy=0;exitX=0.455;exitY=1.033;exitDx=0;exitDy=0;exitPerimeter=0;" edge="1" parent="1" source="oKTtClsYX8X-2EPZthCU-34" target="oKTtClsYX8X-2EPZthCU-35">
          <mxGeometry width="50" height="50" relative="1" as="geometry">
            <mxPoint x="400" y="2390" as="sourcePoint" />
            <mxPoint x="450" y="2340" as="targetPoint" />
          </mxGeometry>
        </mxCell>
        <mxCell id="oKTtClsYX8X-2EPZthCU-41" value="" style="endArrow=classic;html=1;rounded=0;exitX=0.462;exitY=1;exitDx=0;exitDy=0;exitPerimeter=0;entryX=0.5;entryY=0;entryDx=0;entryDy=0;" edge="1" parent="1" source="oKTtClsYX8X-2EPZthCU-35" target="oKTtClsYX8X-2EPZthCU-36">
          <mxGeometry width="50" height="50" relative="1" as="geometry">
            <mxPoint x="400" y="2390" as="sourcePoint" />
            <mxPoint x="450" y="2340" as="targetPoint" />
          </mxGeometry>
        </mxCell>
      </root>
    </mxGraphModel>
  </diagram>
</mxfile>
